<?xml version="1.0" encoding="UTF-8"?>
<svg width="48px" height="32px" viewBox="0 0 48 32" version="1.1" xmlns="http://www.w3.org/2000/svg" xmlns:xlink="http://www.w3.org/1999/xlink">
    <title>Icons / Logo</title>
    <g id="Icons-/-Logo" stroke="none" stroke-width="1" fill="none" fill-rule="evenodd">
        <path d="M12,4 L24,4 L24,4 L24,28 L12,28 C7.581722,28 4,24.418278 4,20 L4,12 C4,7.581722 7.581722,4 12,4 Z M30,4 L40,4 C42.209139,4 44,5.790861 44,8 L44,9 C44,11.209139 42.209139,13 40,13 L30,13 L30,13 L30,4 Z M30,19 L40,19 C42.209139,19 44,20.790861 44,23 L44,24 C44,26.209139 42.209139,28 40,28 L30,28 L30,28 L30,19 Z" id="Combined-Shape" fill="#1E252C" fill-rule="nonzero"></path>
    </g>
</svg>