<?xml version="1.0" encoding="UTF-8"?>
<svg width="24px" height="24px" viewBox="0 0 24 24" version="1.1" xmlns="http://www.w3.org/2000/svg" xmlns:xlink="http://www.w3.org/1999/xlink">
    <title>Icons / Search</title>
    <g id="Icons-/-Search" stroke="none" stroke-width="1" fill="none" fill-rule="evenodd">
        <path d="M10.1538462,2 C14.657091,2 18.3076923,5.65060127 18.3076923,10.1538462 C18.3076923,12.1284171 17.6058189,13.9390568 16.4379476,15.3498897 L21.7746975,20.6868409 C22.0751008,20.9872442 22.0751008,21.4742942 21.7746975,21.7746975 C21.4742942,22.0751008 20.9872442,22.0751008 20.6868409,21.7746975 L15.3498897,16.4379476 C13.9390568,17.6058189 12.1284171,18.3076923 10.1538462,18.3076923 C5.65060127,18.3076923 2,14.657091 2,10.1538462 C2,5.65060127 5.65060127,2 10.1538462,2 Z M10.1538462,3.53846154 C6.50027012,3.53846154 3.53846154,6.50027012 3.53846154,10.1538462 C3.53846154,13.8074222 6.50027012,16.7692308 10.1538462,16.7692308 C13.8074222,16.7692308 16.7692308,13.8074222 16.7692308,10.1538462 C16.7692308,6.50027012 13.8074222,3.53846154 10.1538462,3.53846154 Z" id="Combined-Shape" fill="#1E252C" fill-rule="nonzero"></path>
    </g>
</svg>