<?xml version="1.0" encoding="UTF-8"?>
<svg width="24px" height="24px" viewBox="0 0 24 24" version="1.1" xmlns="http://www.w3.org/2000/svg" xmlns:xlink="http://www.w3.org/1999/xlink">
    <title>Icons / User</title>
    <g id="Icons-/-User" stroke="none" stroke-width="1" fill="none" fill-rule="evenodd">
        <path d="M12,11.3137085 C7.54247233,11.3137085 3.92893219,14.9272486 3.92893219,19.3847763 C3.92893219,24.6233526 20.0710678,24.6233526 20.0710678,19.3847763 C20.0710678,14.9272486 16.4575277,11.3137085 12,11.3137085 Z M12,13.3137085 C15.3529582,13.3137085 18.0710678,16.0318181 18.0710678,19.3847763 C18.0710678,21.9566859 5.92893219,21.9566859 5.92893219,19.3847763 C5.92893219,16.0318181 8.64704183,13.3137085 12,13.3137085 Z M12,1 C9.23857625,1 7,3.23857625 7,6 C7,8.76142375 9.23857625,11 12,11 C14.7614237,11 17,8.76142375 17,6 C17,3.23857625 14.7614237,1 12,1 Z M12,3 C13.6568542,3 15,4.34314575 15,6 C15,7.65685425 13.6568542,9 12,9 C10.3431458,9 9,7.65685425 9,6 C9,4.34314575 10.3431458,3 12,3 Z" id="Combined-Shape" fill="#0A0912" fill-rule="nonzero"></path>
    </g>
</svg>